<svg width="42" height="42" viewBox="0 0 42 42" fill="none" xmlns="http://www.w3.org/2000/svg">
<path d="M14.5 27.5H3.125C2.69402 27.5 2.2807 27.3288 1.97595 27.024C1.67121 26.7193 1.5 26.306 1.5 25.875V16.125C1.5 15.694 1.67121 15.2807 1.97595 14.976C2.2807 14.6712 2.69402 14.5 3.125 14.5H14.5V3.125C14.5 2.69402 14.6712 2.2807 14.976 1.97595C15.2807 1.67121 15.694 1.5 16.125 1.5H25.875C26.306 1.5 26.7193 1.67121 27.024 1.97595C27.3288 2.2807 27.5 2.69402 27.5 3.125V14.5H38.875C39.306 14.5 39.7193 14.6712 40.024 14.976C40.3288 15.2807 40.5 15.694 40.5 16.125V25.875C40.5 26.306 40.3288 26.7193 40.024 27.024C39.7193 27.3288 39.306 27.5 38.875 27.5H27.5V38.875C27.5 39.306 27.3288 39.7193 27.024 40.024C26.7193 40.3288 26.306 40.5 25.875 40.5H16.125C15.694 40.5 15.2807 40.3288 14.976 40.024C14.6712 39.7193 14.5 39.306 14.5 38.875V27.5Z" stroke="#0051C4" stroke-width="3" stroke-linecap="round" stroke-linejoin="round"/>
</svg>
